<svg id="visual" viewBox="0 0 960 540" width="960" height="540" xmlns="http://www.w3.org/2000/svg" xmlns:xlink="http://www.w3.org/1999/xlink" version="1.1"><rect x="0" y="0" width="960" height="540" fill="#ffffff"></rect><defs><linearGradient id="grad1_0" x1="43.8%" y1="0%" x2="100%" y2="100%"><stop offset="14.444444444444446%" stop-color="#fbae3c" stop-opacity="1"></stop><stop offset="85.55555555555554%" stop-color="#fbae3c" stop-opacity="1"></stop></linearGradient></defs><defs><linearGradient id="grad1_1" x1="43.8%" y1="0%" x2="100%" y2="100%"><stop offset="14.444444444444446%" stop-color="#fbae3c" stop-opacity="1"></stop><stop offset="85.55555555555554%" stop-color="#ffd69f" stop-opacity="1"></stop></linearGradient></defs><defs><linearGradient id="grad1_2" x1="43.8%" y1="0%" x2="100%" y2="100%"><stop offset="14.444444444444446%" stop-color="#ffffff" stop-opacity="1"></stop><stop offset="85.55555555555554%" stop-color="#ffd69f" stop-opacity="1"></stop></linearGradient></defs><defs><linearGradient id="grad2_0" x1="0%" y1="0%" x2="56.3%" y2="100%"><stop offset="14.444444444444446%" stop-color="#fbae3c" stop-opacity="1"></stop><stop offset="85.55555555555554%" stop-color="#fbae3c" stop-opacity="1"></stop></linearGradient></defs><defs><linearGradient id="grad2_1" x1="0%" y1="0%" x2="56.3%" y2="100%"><stop offset="14.444444444444446%" stop-color="#ffd69f" stop-opacity="1"></stop><stop offset="85.55555555555554%" stop-color="#fbae3c" stop-opacity="1"></stop></linearGradient></defs><defs><linearGradient id="grad2_2" x1="0%" y1="0%" x2="56.3%" y2="100%"><stop offset="14.444444444444446%" stop-color="#ffd69f" stop-opacity="1"></stop><stop offset="85.55555555555554%" stop-color="#ffffff" stop-opacity="1"></stop></linearGradient></defs><g transform="translate(960, 0)"><path d="M0 351C-44.9 344 -89.8 337.1 -133.2 321.5C-176.6 306 -218.5 281.8 -248.2 248.2C-277.9 214.6 -295.3 171.5 -310.4 128.6C-325.5 85.6 -338.3 42.8 -351 0L0 0Z" fill="#ffeacf"></path><path d="M0 234C-29.9 229.4 -59.8 224.7 -88.8 214.3C-117.7 204 -145.7 187.9 -165.5 165.5C-185.3 143.1 -196.9 114.3 -206.9 85.7C-217 57.1 -225.5 28.5 -234 0L0 0Z" fill="#ffc270"></path><path d="M0 117C-15 114.7 -29.9 112.4 -44.4 107.2C-58.9 102 -72.8 93.9 -82.7 82.7C-92.6 71.5 -98.4 57.2 -103.5 42.9C-108.5 28.5 -112.8 14.3 -117 0L0 0Z" fill="#fbae3c"></path></g><g transform="translate(0, 540)"><path d="M0 -351C26.5 -302.8 53 -254.6 101.8 -245.8C150.5 -236.9 221.5 -267.4 248.2 -248.2C274.9 -229 257.2 -160.2 267 -110.6C276.8 -61 313.9 -30.5 351 0L0 0Z" fill="#ffeacf"></path><path d="M0 -234C17.7 -201.9 35.4 -169.7 67.9 -163.8C100.4 -157.9 147.7 -178.2 165.5 -165.5C183.2 -152.7 171.5 -106.8 178 -73.7C184.5 -40.6 209.3 -20.3 234 0L0 0Z" fill="#ffc270"></path><path d="M0 -117C8.8 -100.9 17.7 -84.9 33.9 -81.9C50.2 -79 73.8 -89.1 82.7 -82.7C91.6 -76.3 85.7 -53.4 89 -36.9C92.3 -20.3 104.6 -10.2 117 0L0 0Z" fill="#fbae3c"></path></g></svg>