<svg id="visual" viewBox="0 0 900 600" width="900" height="600" xmlns="http://www.w3.org/2000/svg" xmlns:xlink="http://www.w3.org/1999/xlink" version="1.1"><g><g transform="translate(2 512)"><path d="M81.7 -68.3C101.4 -40.5 109.8 -6.8 103.5 24.8C97.2 56.4 76.4 85.8 46.8 101.8C17.3 117.8 -21 120.4 -49.9 105.6C-78.9 90.9 -98.5 59 -104.9 25.5C-111.2 -7.9 -104.2 -42.7 -84.5 -70.5C-64.8 -98.2 -32.4 -118.9 -0.7 -118.3C31 -117.8 62.1 -96 81.7 -68.3Z" stroke="#F7760E" fill="none" stroke-width="20"></path></g><g transform="translate(734 490)"><path d="M66.2 -50.3C81.6 -33.4 87.2 -6.1 80.5 16.4C73.8 39 54.9 56.8 33.6 65.5C12.2 74.1 -11.5 73.6 -31.1 64.2C-50.7 54.9 -66.1 36.8 -73.3 14.2C-80.4 -8.3 -79.1 -35.2 -65.5 -51.7C-51.9 -68.2 -26 -74.3 -0.3 -74.1C25.4 -73.9 50.7 -67.3 66.2 -50.3Z" stroke="#F7760E" fill="none" stroke-width="20"></path></g><g transform="translate(405 283)"><path d="M46.4 -36.5C57.5 -23 62.3 -3.8 59.4 15.5C56.6 34.9 46.1 54.5 29.5 63.3C12.8 72.2 -10.1 70.3 -28.1 60.7C-46.1 51.1 -59.3 33.8 -63.2 14.9C-67.2 -4.1 -61.9 -24.6 -49.9 -38.3C-37.8 -52.1 -18.9 -58.9 -0.6 -58.4C17.6 -57.9 35.2 -50 46.4 -36.5Z" stroke="#F7760E" fill="none" stroke-width="20"></path></g><g transform="translate(673 26)"><path d="M55.9 -44.2C69.1 -28 74.1 -5 69.4 15.9C64.7 36.7 50.2 55.4 30.6 65.6C11 75.8 -13.6 77.6 -34.8 68.7C-56 59.9 -73.7 40.4 -77.8 18.8C-81.9 -2.7 -72.2 -26.3 -57 -42.9C-41.7 -59.6 -20.9 -69.2 0.2 -69.4C21.4 -69.6 42.7 -60.3 55.9 -44.2Z" stroke="#F7760E" fill="none" stroke-width="20"></path></g></g></svg>