<svg id="visual" viewBox="0 0 960 540" width="960" height="540" xmlns="http://www.w3.org/2000/svg" xmlns:xlink="http://www.w3.org/1999/xlink" version="1.1"><rect x="0" y="0" width="960" height="540" fill="#ffffff"></rect><defs><linearGradient id="grad1_0" x1="43.8%" y1="100%" x2="100%" y2="0%"><stop offset="14.444444444444446%" stop-color="#fbae3c" stop-opacity="1"></stop><stop offset="85.55555555555554%" stop-color="#fbae3c" stop-opacity="1"></stop></linearGradient></defs><defs><linearGradient id="grad1_1" x1="43.8%" y1="100%" x2="100%" y2="0%"><stop offset="14.444444444444446%" stop-color="#fbae3c" stop-opacity="1"></stop><stop offset="85.55555555555554%" stop-color="#ffd69f" stop-opacity="1"></stop></linearGradient></defs><defs><linearGradient id="grad1_2" x1="43.8%" y1="100%" x2="100%" y2="0%"><stop offset="14.444444444444446%" stop-color="#ffffff" stop-opacity="1"></stop><stop offset="85.55555555555554%" stop-color="#ffd69f" stop-opacity="1"></stop></linearGradient></defs><defs><linearGradient id="grad2_0" x1="0%" y1="100%" x2="56.3%" y2="0%"><stop offset="14.444444444444446%" stop-color="#fbae3c" stop-opacity="1"></stop><stop offset="85.55555555555554%" stop-color="#fbae3c" stop-opacity="1"></stop></linearGradient></defs><defs><linearGradient id="grad2_1" x1="0%" y1="100%" x2="56.3%" y2="0%"><stop offset="14.444444444444446%" stop-color="#ffd69f" stop-opacity="1"></stop><stop offset="85.55555555555554%" stop-color="#fbae3c" stop-opacity="1"></stop></linearGradient></defs><defs><linearGradient id="grad2_2" x1="0%" y1="100%" x2="56.3%" y2="0%"><stop offset="14.444444444444446%" stop-color="#ffd69f" stop-opacity="1"></stop><stop offset="85.55555555555554%" stop-color="#ffffff" stop-opacity="1"></stop></linearGradient></defs><g transform="translate(960, 540)"><path d="M-378 0C-348.5 -42.2 -318.9 -84.4 -296.6 -122.8C-274.2 -161.3 -259.1 -196 -236.9 -236.9C-214.7 -277.7 -185.3 -324.7 -144.7 -349.2C-104 -373.8 -52 -375.9 0 -378L0 0Z" fill="#ffeacf"></path><path d="M-252 0C-232.3 -28.1 -212.6 -56.3 -197.7 -81.9C-182.8 -107.5 -172.7 -130.7 -157.9 -157.9C-143.1 -185.2 -123.5 -216.5 -96.4 -232.8C-69.3 -249.2 -34.7 -250.6 0 -252L0 0Z" fill="#ffc270"></path><path d="M-126 0C-116.2 -14.1 -106.3 -28.1 -98.9 -40.9C-91.4 -53.8 -86.4 -65.3 -79 -79C-71.6 -92.6 -61.8 -108.2 -48.2 -116.4C-34.7 -124.6 -17.3 -125.3 0 -126L0 0Z" fill="#fbae3c"></path></g><g transform="translate(0, 0)"><path d="M378 0C378 53.7 377.9 107.4 349.2 144.7C320.5 181.9 263.2 202.5 220.6 220.6C178 238.7 150.3 254.1 116 279.9C81.6 305.7 40.8 341.9 0 378L0 0Z" fill="#ffeacf"></path><path d="M252 0C252 35.8 251.9 71.6 232.8 96.4C213.7 121.2 175.5 135 147.1 147.1C118.7 159.1 100.2 169.4 77.3 186.6C54.4 203.8 27.2 227.9 0 252L0 0Z" fill="#ffc270"></path><path d="M126 0C126 17.9 126 35.8 116.4 48.2C106.8 60.6 87.7 67.5 73.5 73.5C59.3 79.6 50.1 84.7 38.7 93.3C27.2 101.9 13.6 114 0 126L0 0Z" fill="#fbae3c"></path></g></svg>