<svg width="569" height="479" viewBox="0 0 569 479" fill="none" xmlns="http://www.w3.org/2000/svg">
<g clip-path="url(#clip0_1_2)">
<path d="M386.979 31H181.979C177.868 31 173.925 29.367 171.019 26.4601C168.112 23.5533 166.479 19.6109 166.479 15.5C166.479 11.3891 168.112 7.44665 171.019 4.53984C173.925 1.63303 177.868 0 181.979 0H386.979C391.09 0 395.032 1.63303 397.939 4.53984C400.846 7.44665 402.479 11.3891 402.479 15.5C402.479 19.6109 400.846 23.5533 397.939 26.4601C395.032 29.367 391.09 31 386.979 31V31Z" fill="#ED710E"/>
<path d="M185.861 18V9.27273H191.537V10.598H187.442V12.9673H191.243V14.2926H187.442V16.6747H191.571V18H185.861ZM194.343 11.4545L195.664 13.8707L197.006 11.4545H198.638L196.665 14.7273L198.673 18H197.049L195.664 15.6435L194.292 18H192.656L194.65 14.7273L192.707 11.4545H194.343ZM202.441 18.1278C201.787 18.1278 201.226 17.9844 200.757 17.6974C200.292 17.4105 199.932 17.0142 199.679 16.5085C199.429 16 199.304 15.4148 199.304 14.7528C199.304 14.0881 199.432 13.5014 199.688 12.9929C199.944 12.4815 200.304 12.0838 200.77 11.7997C201.239 11.5128 201.793 11.3693 202.432 11.3693C202.963 11.3693 203.434 11.4673 203.843 11.6634C204.255 11.8565 204.583 12.1307 204.827 12.4858C205.071 12.8381 205.211 13.25 205.245 13.7216H203.77C203.711 13.4062 203.569 13.1435 203.344 12.9332C203.123 12.7202 202.826 12.6136 202.453 12.6136C202.138 12.6136 201.861 12.6989 201.623 12.8693C201.384 13.0369 201.198 13.2784 201.064 13.5938C200.934 13.9091 200.868 14.2869 200.868 14.7273C200.868 15.1733 200.934 15.5568 201.064 15.8778C201.195 16.196 201.378 16.4418 201.614 16.6151C201.853 16.7855 202.132 16.8707 202.453 16.8707C202.681 16.8707 202.884 16.8281 203.063 16.7429C203.245 16.6548 203.397 16.5284 203.519 16.3636C203.641 16.1989 203.725 15.9986 203.77 15.7628H205.245C205.208 16.2259 205.071 16.6364 204.836 16.9943C204.6 17.3494 204.279 17.6278 203.873 17.8295C203.466 18.0284 202.989 18.1278 202.441 18.1278ZM209.409 18.1278C208.753 18.1278 208.186 17.9915 207.709 17.7188C207.234 17.4432 206.869 17.054 206.614 16.5511C206.358 16.0455 206.23 15.4503 206.23 14.7656C206.23 14.0923 206.358 13.5014 206.614 12.9929C206.872 12.4815 207.233 12.0838 207.696 11.7997C208.159 11.5128 208.703 11.3693 209.328 11.3693C209.732 11.3693 210.112 11.4347 210.47 11.5653C210.831 11.6932 211.149 11.892 211.425 12.1619C211.703 12.4318 211.922 12.7756 212.081 13.1932C212.24 13.608 212.32 14.1023 212.32 14.6761V15.1491H206.955V14.1094H210.841C210.838 13.8139 210.774 13.5511 210.649 13.321C210.524 13.0881 210.349 12.9048 210.125 12.7713C209.903 12.6378 209.645 12.571 209.349 12.571C209.034 12.571 208.757 12.6477 208.518 12.8011C208.28 12.9517 208.094 13.1506 207.96 13.3977C207.83 13.642 207.763 13.9105 207.76 14.2031V15.1108C207.76 15.4915 207.83 15.8182 207.969 16.0909C208.108 16.3608 208.303 16.5682 208.553 16.7131C208.803 16.8551 209.095 16.9261 209.43 16.9261C209.655 16.9261 209.858 16.8949 210.04 16.8324C210.222 16.767 210.379 16.6719 210.513 16.5469C210.646 16.4219 210.747 16.267 210.815 16.0824L212.256 16.2443C212.165 16.625 211.991 16.9574 211.736 17.2415C211.483 17.5227 211.159 17.7415 210.764 17.8977C210.369 18.0511 209.918 18.1278 209.409 18.1278ZM215.167 9.27273V18H213.625V9.27273H215.167ZM227.268 12.2173H225.675C225.629 11.956 225.545 11.7244 225.423 11.5227C225.301 11.3182 225.149 11.1449 224.967 11.0028C224.786 10.8608 224.578 10.7543 224.345 10.6832C224.115 10.6094 223.866 10.5724 223.599 10.5724C223.125 10.5724 222.705 10.6918 222.338 10.9304C221.972 11.1662 221.685 11.5128 221.477 11.9702C221.27 12.4247 221.166 12.9801 221.166 13.6364C221.166 14.304 221.27 14.8665 221.477 15.3239C221.688 15.7784 221.974 16.1222 222.338 16.3551C222.705 16.5852 223.124 16.7003 223.595 16.7003C223.857 16.7003 224.101 16.6662 224.328 16.598C224.558 16.527 224.764 16.4233 224.946 16.2869C225.131 16.1506 225.286 15.983 225.411 15.7841C225.538 15.5852 225.626 15.358 225.675 15.1023L227.268 15.1108C227.209 15.5256 227.08 15.9148 226.881 16.2784C226.685 16.642 226.428 16.9631 226.109 17.2415C225.791 17.517 225.419 17.733 224.993 17.8892C224.567 18.0426 224.094 18.1193 223.574 18.1193C222.807 18.1193 222.122 17.9418 221.52 17.5866C220.918 17.2315 220.443 16.7188 220.097 16.0483C219.75 15.3778 219.577 14.5739 219.577 13.6364C219.577 12.696 219.751 11.892 220.101 11.2244C220.45 10.554 220.926 10.0412 221.528 9.68608C222.131 9.33097 222.813 9.15341 223.574 9.15341C224.06 9.15341 224.511 9.22159 224.929 9.35795C225.347 9.49432 225.719 9.6946 226.045 9.95881C226.372 10.2202 226.641 10.5412 226.851 10.9219C227.064 11.2997 227.203 11.7315 227.268 12.2173ZM231.503 18.1278C230.864 18.1278 230.31 17.9872 229.841 17.706C229.373 17.4247 229.009 17.0312 228.75 16.5256C228.495 16.0199 228.367 15.429 228.367 14.7528C228.367 14.0767 228.495 13.4844 228.75 12.9759C229.009 12.4673 229.373 12.0724 229.841 11.7912C230.31 11.5099 230.864 11.3693 231.503 11.3693C232.142 11.3693 232.696 11.5099 233.165 11.7912C233.634 12.0724 233.996 12.4673 234.252 12.9759C234.51 13.4844 234.64 14.0767 234.64 14.7528C234.64 15.429 234.51 16.0199 234.252 16.5256C233.996 17.0312 233.634 17.4247 233.165 17.706C232.696 17.9872 232.142 18.1278 231.503 18.1278ZM231.512 16.892C231.858 16.892 232.148 16.7969 232.381 16.6065C232.614 16.4134 232.787 16.1548 232.901 15.831C233.017 15.5071 233.076 15.1463 233.076 14.7486C233.076 14.348 233.017 13.9858 232.901 13.6619C232.787 13.3352 232.614 13.0753 232.381 12.8821C232.148 12.6889 231.858 12.5923 231.512 12.5923C231.157 12.5923 230.861 12.6889 230.625 12.8821C230.392 13.0753 230.218 13.3352 230.101 13.6619C229.988 13.9858 229.931 14.348 229.931 14.7486C229.931 15.1463 229.988 15.5071 230.101 15.831C230.218 16.1548 230.392 16.4134 230.625 16.6065C230.861 16.7969 231.157 16.892 231.512 16.892ZM235.949 18V11.4545H237.423V12.5668H237.5C237.636 12.1918 237.862 11.8991 238.178 11.6889C238.493 11.4759 238.869 11.3693 239.307 11.3693C239.75 11.3693 240.124 11.4773 240.428 11.6932C240.734 11.9062 240.95 12.1974 241.075 12.5668H241.143C241.288 12.2031 241.533 11.9134 241.876 11.6974C242.223 11.4787 242.634 11.3693 243.108 11.3693C243.71 11.3693 244.202 11.5597 244.582 11.9403C244.963 12.321 245.153 12.8764 245.153 13.6065V18H243.607V13.8452C243.607 13.4389 243.499 13.142 243.283 12.9545C243.067 12.7642 242.803 12.669 242.49 12.669C242.118 12.669 241.827 12.7855 241.616 13.0185C241.409 13.2486 241.305 13.5483 241.305 13.9176V18H239.793V13.7812C239.793 13.4432 239.69 13.1733 239.486 12.9716C239.284 12.7699 239.02 12.669 238.693 12.669C238.472 12.669 238.27 12.7259 238.088 12.8395C237.906 12.9503 237.761 13.108 237.653 13.3125C237.545 13.5142 237.491 13.75 237.491 14.0199V18H235.949ZM246.718 20.4545V11.4545H248.235V12.5369H248.325C248.404 12.3778 248.517 12.2088 248.662 12.0298C248.806 11.848 249.002 11.6932 249.25 11.5653C249.497 11.4347 249.812 11.3693 250.196 11.3693C250.701 11.3693 251.157 11.4986 251.564 11.7571C251.973 12.0128 252.297 12.392 252.535 12.8949C252.777 13.3949 252.897 14.0085 252.897 14.7358C252.897 15.4545 252.779 16.0653 252.544 16.5682C252.308 17.071 251.987 17.4545 251.581 17.7188C251.174 17.983 250.714 18.1151 250.2 18.1151C249.825 18.1151 249.514 18.0526 249.267 17.9276C249.02 17.8026 248.821 17.652 248.67 17.4759C248.522 17.2969 248.407 17.1278 248.325 16.9688H248.261V20.4545H246.718ZM248.231 14.7273C248.231 15.1506 248.291 15.5213 248.41 15.8395C248.532 16.1577 248.707 16.4062 248.934 16.5852C249.164 16.7614 249.443 16.8494 249.77 16.8494C250.11 16.8494 250.396 16.7585 250.626 16.5767C250.856 16.392 251.029 16.1406 251.146 15.8224C251.265 15.5014 251.325 15.1364 251.325 14.7273C251.325 14.321 251.267 13.9602 251.15 13.6449C251.034 13.3295 250.86 13.0824 250.63 12.9034C250.4 12.7244 250.113 12.6349 249.77 12.6349C249.44 12.6349 249.16 12.7216 248.93 12.8949C248.7 13.0682 248.525 13.3111 248.406 13.6236C248.289 13.9361 248.231 14.304 248.231 14.7273ZM258.39 15.2472V11.4545H259.933V18H258.437V16.8366H258.369C258.221 17.2031 257.978 17.5028 257.64 17.7358C257.305 17.9687 256.892 18.0852 256.4 18.0852C255.971 18.0852 255.592 17.9901 255.262 17.7997C254.936 17.6065 254.68 17.3267 254.495 16.9602C254.311 16.5909 254.218 16.1449 254.218 15.6222V11.4545H255.761V15.3835C255.761 15.7983 255.875 16.1278 256.102 16.3722C256.329 16.6165 256.627 16.7386 256.997 16.7386C257.224 16.7386 257.444 16.6832 257.657 16.5724C257.87 16.4616 258.045 16.2969 258.181 16.0781C258.321 15.8565 258.39 15.5795 258.39 15.2472ZM264.788 11.4545V12.6477H261.025V11.4545H264.788ZM261.954 9.88636H263.496V16.0312C263.496 16.2386 263.528 16.3977 263.59 16.5085C263.656 16.6165 263.741 16.6903 263.846 16.7301C263.951 16.7699 264.067 16.7898 264.195 16.7898C264.292 16.7898 264.38 16.7827 264.46 16.7685C264.542 16.7543 264.604 16.7415 264.647 16.7301L264.907 17.9361C264.825 17.9645 264.707 17.9957 264.553 18.0298C264.403 18.0639 264.218 18.0838 263.999 18.0895C263.613 18.1009 263.265 18.0426 262.955 17.9148C262.646 17.7841 262.4 17.5824 262.218 17.3097C262.039 17.0369 261.951 16.696 261.954 16.2869V9.88636ZM268.905 18.1278C268.249 18.1278 267.682 17.9915 267.205 17.7188C266.73 17.4432 266.365 17.054 266.11 16.5511C265.854 16.0455 265.726 15.4503 265.726 14.7656C265.726 14.0923 265.854 13.5014 266.11 12.9929C266.368 12.4815 266.729 12.0838 267.192 11.7997C267.655 11.5128 268.199 11.3693 268.824 11.3693C269.228 11.3693 269.608 11.4347 269.966 11.5653C270.327 11.6932 270.645 11.892 270.921 12.1619C271.199 12.4318 271.418 12.7756 271.577 13.1932C271.736 13.608 271.816 14.1023 271.816 14.6761V15.1491H266.451V14.1094H270.337C270.334 13.8139 270.27 13.5511 270.145 13.321C270.02 13.0881 269.846 12.9048 269.621 12.7713C269.4 12.6378 269.141 12.571 268.846 12.571C268.53 12.571 268.253 12.6477 268.015 12.8011C267.776 12.9517 267.59 13.1506 267.456 13.3977C267.326 13.642 267.259 13.9105 267.256 14.2031V15.1108C267.256 15.4915 267.326 15.8182 267.465 16.0909C267.604 16.3608 267.799 16.5682 268.049 16.7131C268.299 16.8551 268.591 16.9261 268.926 16.9261C269.151 16.9261 269.354 16.8949 269.536 16.8324C269.718 16.767 269.875 16.6719 270.009 16.5469C270.142 16.4219 270.243 16.267 270.311 16.0824L271.752 16.2443C271.661 16.625 271.488 16.9574 271.232 17.2415C270.979 17.5227 270.655 17.7415 270.26 17.8977C269.865 18.0511 269.414 18.1278 268.905 18.1278ZM273.121 18V11.4545H274.616V12.5455H274.685C274.804 12.1676 275.009 11.8764 275.298 11.6719C275.591 11.4645 275.925 11.3608 276.3 11.3608C276.385 11.3608 276.48 11.3651 276.585 11.3736C276.693 11.3793 276.783 11.3892 276.854 11.4034V12.8224C276.788 12.7997 276.685 12.7798 276.543 12.7628C276.403 12.7429 276.268 12.733 276.138 12.733C275.857 12.733 275.604 12.794 275.379 12.9162C275.158 13.0355 274.983 13.2017 274.855 13.4148C274.727 13.6278 274.663 13.8736 274.663 14.152V18H273.121ZM283.052 13.1847L281.646 13.3381C281.606 13.196 281.536 13.0625 281.437 12.9375C281.34 12.8125 281.21 12.7116 281.045 12.6349C280.88 12.5582 280.678 12.5199 280.44 12.5199C280.119 12.5199 279.849 12.5895 279.63 12.7287C279.414 12.8679 279.308 13.0483 279.31 13.2699C279.308 13.4602 279.377 13.6151 279.519 13.7344C279.664 13.8537 279.903 13.9517 280.235 14.0284L281.352 14.267C281.971 14.4006 282.431 14.6122 282.732 14.902C283.036 15.1918 283.19 15.571 283.192 16.0398C283.19 16.4517 283.069 16.8153 282.83 17.1307C282.594 17.4432 282.266 17.6875 281.846 17.8636C281.425 18.0398 280.942 18.1278 280.397 18.1278C279.596 18.1278 278.951 17.9602 278.462 17.625C277.974 17.2869 277.683 16.8168 277.589 16.2145L279.093 16.0696C279.161 16.3651 279.306 16.5881 279.528 16.7386C279.749 16.8892 280.038 16.9645 280.393 16.9645C280.759 16.9645 281.053 16.8892 281.275 16.7386C281.499 16.5881 281.612 16.402 281.612 16.1804C281.612 15.9929 281.539 15.8381 281.394 15.7159C281.252 15.5937 281.031 15.5 280.729 15.4347L279.613 15.2003C278.985 15.0696 278.521 14.8494 278.219 14.5398C277.918 14.2273 277.769 13.8324 277.772 13.3551C277.769 12.9517 277.879 12.6023 278.1 12.3068C278.325 12.0085 278.636 11.7784 279.033 11.6165C279.434 11.4517 279.896 11.3693 280.418 11.3693C281.185 11.3693 281.789 11.5327 282.229 11.8594C282.673 12.1861 282.947 12.6278 283.052 13.1847Z" fill="white"/>
<path d="M566.549 55.7856H2.40845C1.76486 55.7714 1.15242 55.5058 0.702271 55.0456C0.252126 54.5854 6.10352e-05 53.9672 6.10352e-05 53.3235C6.10352e-05 52.6797 0.252126 52.0616 0.702271 51.6014C1.15242 51.1412 1.76486 50.8756 2.40845 50.8614H566.549C567.192 50.8756 567.805 51.1412 568.255 51.6014C568.705 52.0616 568.957 52.6797 568.957 53.3235C568.957 53.9672 568.705 54.5854 568.255 55.0456C567.805 55.5058 567.192 55.7714 566.549 55.7856V55.7856Z" fill="#E6E6E6"/>
<path d="M30.5814 24.2901C35.2519 24.2901 39.038 20.4196 39.038 15.6451C39.038 10.8705 35.2519 7 30.5814 7C25.9109 7 22.1248 10.8705 22.1248 15.6451C22.1248 20.4196 25.9109 24.2901 30.5814 24.2901Z" fill="#3F3D56"/>
<path d="M59.7951 24.2901C64.4656 24.2901 68.2518 20.4196 68.2518 15.6451C68.2518 10.8705 64.4656 7 59.7951 7C55.1247 7 51.3385 10.8705 51.3385 15.6451C51.3385 20.4196 55.1247 24.2901 59.7951 24.2901Z" fill="#3F3D56"/>
<path d="M89.0089 24.2901C93.6794 24.2901 97.4655 20.4196 97.4655 15.6451C97.4655 10.8705 93.6794 7 89.0089 7C84.3385 7 80.5523 10.8705 80.5523 15.6451C80.5523 20.4196 84.3385 24.2901 89.0089 24.2901Z" fill="#3F3D56"/>
<path d="M122.32 22.4779C122.187 22.478 122.055 22.4515 121.932 22.3999C121.81 22.3482 121.698 22.2724 121.605 22.1771L115.899 16.3441C115.717 16.1573 115.614 15.9063 115.614 15.6449C115.614 15.3835 115.717 15.1325 115.899 14.9457L121.605 9.11313C121.792 8.92644 122.044 8.82076 122.307 8.81908C122.571 8.81741 122.825 8.91986 123.013 9.10418C123.201 9.28849 123.309 9.53976 123.314 9.80332C123.318 10.0669 123.218 10.3214 123.035 10.5116L118.013 15.6449L123.035 20.7787C123.173 20.9194 123.266 21.0976 123.303 21.2909C123.339 21.4843 123.318 21.6842 123.242 21.8657C123.166 22.0471 123.038 22.2019 122.874 22.3109C122.71 22.4198 122.517 22.4779 122.32 22.4779V22.4779Z" fill="#3F3D56"/>
<path d="M131.909 22.4779C131.712 22.4779 131.519 22.4198 131.355 22.3109C131.192 22.202 131.063 22.0471 130.987 21.8657C130.911 21.6842 130.89 21.4843 130.926 21.2909C130.963 21.0976 131.056 20.9194 131.194 20.7787L136.215 15.6449L131.194 10.5116C131.011 10.3214 130.911 10.0669 130.915 9.80332C130.92 9.53976 131.028 9.28849 131.216 9.10418C131.404 8.91986 131.658 8.81741 131.922 8.81908C132.185 8.82076 132.437 8.92644 132.624 9.11313L138.329 14.9457C138.512 15.1325 138.614 15.3835 138.614 15.6449C138.614 15.9063 138.512 16.1573 138.329 16.3441L132.624 22.1771C132.531 22.2725 132.419 22.3482 132.297 22.3999C132.174 22.4515 132.042 22.4781 131.909 22.4779V22.4779Z" fill="#E6E6E6"/>
<path d="M507.807 8C507.226 8.00072 506.669 8.23198 506.258 8.64307C505.846 9.05415 505.615 9.61149 505.614 10.1929V20.8071C505.615 21.3885 505.846 21.9458 506.258 22.3569C506.669 22.768 507.226 22.9993 507.807 23H518.422C519.003 22.9993 519.56 22.768 519.971 22.3569C520.382 21.9458 520.614 21.3885 520.614 20.8071V10.1929C520.614 9.61149 520.382 9.05415 519.971 8.64307C519.56 8.23198 519.003 8.00072 518.422 8H507.807Z" fill="#E6E6E6"/>
<path d="M481.807 8C481.226 8.00072 480.669 8.23198 480.258 8.64307C479.846 9.05415 479.615 9.61149 479.614 10.1929V20.8071C479.615 21.3885 479.846 21.9458 480.258 22.3569C480.669 22.768 481.226 22.9993 481.807 23H492.422C493.003 22.9993 493.56 22.768 493.971 22.3569C494.382 21.9458 494.614 21.3885 494.614 20.8071V10.1929C494.614 9.61149 494.382 9.05415 493.971 8.64307C493.56 8.23198 493.003 8.00072 492.422 8H481.807Z" fill="#E6E6E6"/>
<path d="M532.307 8.5C531.726 8.50072 531.169 8.73198 530.758 9.14307C530.346 9.55415 530.115 10.1115 530.114 10.6929V21.3071C530.115 21.8885 530.346 22.4458 530.758 22.8569C531.169 23.268 531.726 23.4993 532.307 23.5H542.922C543.503 23.4993 544.06 23.268 544.471 22.8569C544.882 22.4458 545.114 21.8885 545.114 21.3071V10.6929C545.114 10.1115 544.882 9.55415 544.471 9.14307C544.06 8.73198 543.503 8.50072 542.922 8.5H532.307Z" fill="#E6E6E6"/>
<path d="M410.979 233H157.979C151.881 232.993 146.034 230.568 141.723 226.256C137.411 221.944 134.985 216.098 134.979 210V116C134.985 109.902 137.411 104.056 141.723 99.7442C146.035 95.4324 151.881 93.0069 157.979 93H410.979C417.076 93.0069 422.922 95.4324 427.234 99.7442C431.546 104.056 433.972 109.902 433.979 116V210C433.972 216.098 431.546 221.944 427.234 226.256C422.923 230.568 417.076 232.993 410.979 233V233Z" fill="#F2F2F2"/>
<path d="M183.782 478.05L183.129 477.808C172.189 473.681 162.278 467.222 154.087 458.879C145.895 450.535 139.618 440.508 135.693 429.494C133.541 423.299 132.177 416.857 131.634 410.321L131.58 409.697L132.196 409.807C139.55 411.127 147.27 411.856 150.709 412.142L131.413 399.373L131.447 398.71C131.594 395.663 132.65 392.73 134.479 390.288C136.308 387.847 138.826 386.009 141.709 385.012C144.619 383.937 147.784 383.758 150.797 384.499C153.81 385.239 156.532 386.865 158.612 389.166C160.531 391.248 162.559 393.344 164.52 395.371C171.26 402.337 178.229 409.539 182.636 418.042C185.908 424.511 187.694 431.629 187.863 438.876C188.033 446.124 186.581 453.318 183.614 459.933L183.782 478.05Z" fill="#F2F2F2"/>
<path d="M488.541 476.304L98.815 476.612C98.6584 476.612 98.5032 476.582 98.3583 476.522C98.2134 476.463 98.0818 476.375 97.9708 476.264C97.8599 476.154 97.7719 476.022 97.7118 475.878C97.6518 475.733 97.6209 475.578 97.6209 475.421C97.6209 475.264 97.6518 475.109 97.7118 474.965C97.7719 474.82 97.8599 474.689 97.9708 474.578C98.0818 474.467 98.2134 474.38 98.3583 474.32C98.5032 474.26 98.6584 474.23 98.815 474.23L488.541 473.923C488.697 473.923 488.853 473.953 488.997 474.013C489.142 474.072 489.274 474.16 489.385 474.271C489.496 474.381 489.584 474.513 489.644 474.657C489.704 474.802 489.735 474.957 489.735 475.114C489.735 475.27 489.704 475.426 489.644 475.57C489.584 475.715 489.496 475.846 489.385 475.957C489.274 476.068 489.142 476.155 488.997 476.215C488.853 476.274 488.697 476.305 488.541 476.304V476.304Z" fill="#CACACA"/>
<path d="M405.402 184.147L401.361 121.538C401.182 118.886 399.967 116.411 397.979 114.646C395.991 112.882 393.389 111.97 390.734 112.107V112.107C389.361 112.178 388.017 112.528 386.783 113.135C385.55 113.743 384.453 114.595 383.559 115.64C382.666 116.686 381.994 117.902 381.586 119.215C381.178 120.528 381.042 121.911 381.186 123.278L387.378 188.186L389.478 227.784C387.846 228.578 386.498 229.855 385.617 231.441C384.736 233.028 384.365 234.847 384.554 236.652C384.743 238.456 385.483 240.159 386.673 241.529C387.864 242.898 389.447 243.868 391.208 244.306C392.969 244.745 394.822 244.63 396.516 243.979C398.209 243.327 399.661 242.17 400.674 240.665C401.688 239.159 402.213 237.379 402.178 235.564C402.144 233.75 401.552 231.99 400.483 230.524L405.402 184.147Z" fill="#A0616A"/>
<path d="M407.937 133.925C408.379 133.442 408.65 132.829 408.709 132.177C408.769 131.526 408.612 130.873 408.265 130.32C407.848 129.628 407.659 128.824 407.722 128.02C407.736 127.864 407.76 127.71 407.794 127.558C408.022 126.645 408.027 125.691 407.808 124.777C407.588 123.862 407.152 123.014 406.534 122.304C404.469 119.998 403.384 116.434 402.855 113.24C402.276 109.746 401.878 106.167 400.479 102.913C398.461 98.2185 393.897 94.1345 387.948 96.3819C385.433 97.377 383.338 99.2087 382.015 101.568C379.185 106.465 379.361 112.256 379.582 117.795L378.423 115.645C378.771 121.69 377.893 127.743 375.844 133.441C377.177 133.132 378.192 134.901 377.804 136.213C377.417 137.525 376.249 138.421 375.253 139.36C373.999 140.543 372.837 142.276 374.115 143.969C374.432 144.366 374.828 144.692 375.277 144.929C375.726 145.165 376.22 145.306 376.726 145.342C386.279 146.236 395.913 145.145 405.024 142.136C407.047 141.467 409.209 140.561 410.207 138.678C411.205 136.795 410.066 133.818 407.937 133.925Z" fill="#ED710E"/>
<path d="M337.213 453.245H326.176L320.923 410.671H337.214L337.213 453.245Z" fill="#A0616A"/>
<path d="M343.039 472.369H335.124L333.711 464.895L330.092 472.369H309.098C308.092 472.369 307.112 472.047 306.301 471.451C305.491 470.854 304.892 470.015 304.593 469.054C304.293 468.093 304.309 467.062 304.637 466.111C304.965 465.159 305.589 464.338 306.417 463.766L323.182 452.187V444.632L340.816 445.685L343.039 472.369Z" fill="#2F2E41"/>
<path d="M396.555 443.524L386.275 447.542L365.884 409.802L381.056 403.871L396.555 443.524Z" fill="#A0616A"/>
<path d="M408.943 459.215L401.571 462.096L397.534 455.65L396.885 463.928L377.331 471.571C376.394 471.937 375.364 471.994 374.392 471.734C373.42 471.474 372.557 470.91 371.928 470.124C371.299 469.338 370.938 468.372 370.898 467.366C370.857 466.361 371.139 465.369 371.702 464.535L383.101 447.647L380.351 440.611L397.158 435.171L408.943 459.215Z" fill="#2F2E41"/>
<path d="M389.615 178H338.118C338.118 178 318.726 316.496 318.67 316.748C318.614 317 329.614 321 324.614 326L319.614 331C315.614 335 322.583 348.668 322.583 348.668L314.614 430H347.528L363.614 262L341.853 342.542L370.205 430L390.614 418L394.614 407L386.668 399.054C386.668 399.054 384.615 387.11 384.615 380.055C384.615 373 390.615 379 384.615 373C382.019 370.404 374.71 338.552 374.71 338.552L398.615 262L404.31 227.828C405.775 219.02 404.457 209.974 400.54 201.95C397.373 195.455 393.383 186.949 389.615 178Z" fill="#2F2E41"/>
<path d="M392.615 93L389.192 82.733C388.431 80.4486 387.004 78.4438 385.095 76.9759C383.186 75.508 380.882 74.644 378.479 74.4948L375.438 74.3059C372.733 74.1379 370.05 74.8844 367.82 76.4254C365.59 77.9664 363.943 80.2124 363.144 82.8023V82.8023C362.443 85.0937 361.074 87.1237 359.213 88.6325C357.351 90.1412 355.082 91.06 352.695 91.2712C343.807 92.0284 330.615 94.7161 330.615 104C330.615 118 345.615 155 342.615 158C339.615 161 332.615 173.362 336.615 177C337.657 177.948 336.816 182.506 336.483 185.771C335.878 191.685 377.615 178.611 389.615 182C401.615 185.389 395.615 160 397.615 158C399.492 155.711 401.165 153.263 402.615 150.682C403.324 149.495 403.823 148.194 404.09 146.837L407.535 129.405C407.592 129.115 407.638 128.83 407.674 128.537C408.129 124.806 410.793 99.7011 400.615 96C389.614 92 392.615 93 392.615 93Z" fill="#ED710E"/>
<path d="M277.872 67.8105L323.481 110.893C325.418 112.713 327.994 113.697 330.651 113.635C333.308 113.572 335.835 112.467 337.685 110.559V110.559C338.642 109.571 339.387 108.399 339.877 107.114C340.366 105.829 340.589 104.458 340.531 103.084C340.473 101.71 340.135 100.362 339.54 99.1231C338.944 97.8838 338.102 96.7788 337.065 95.8755L288.317 52.5756L259.805 25.0163C260.458 23.3236 260.575 21.4707 260.14 19.7092C259.704 17.9477 258.736 16.3631 257.369 15.1706C256.001 13.9781 254.299 13.2356 252.495 13.044C250.69 12.8523 248.87 13.2208 247.283 14.0994C245.695 14.9779 244.416 16.324 243.62 17.9546C242.824 19.5853 242.549 21.4215 242.833 23.2138C243.117 25.006 243.945 26.6675 245.206 27.9724C246.467 29.2773 248.099 30.1624 249.881 30.5075L277.872 67.8105Z" fill="#A0616A"/>
<path d="M310.228 106.305C310.233 106.959 310.453 107.593 310.853 108.11C311.254 108.627 311.813 108.998 312.444 109.167C313.22 109.39 313.907 109.849 314.409 110.481C314.504 110.604 314.592 110.734 314.67 110.869C315.125 111.692 315.771 112.394 316.555 112.914C317.338 113.434 318.236 113.757 319.171 113.856C322.254 114.138 325.476 116.008 328.039 117.986C330.843 120.15 333.573 122.498 336.814 123.928C341.489 125.99 347.612 125.87 350.436 120.173C351.6 117.731 351.886 114.962 351.247 112.334C349.983 106.821 345.909 102.702 341.974 98.7976L344.287 99.5822C339.915 95.3932 336.434 90.3644 334.053 84.7972C333.287 85.9313 331.34 85.3272 330.729 84.1026C330.119 82.8781 330.364 81.4269 330.453 80.0615C330.565 78.3405 330.236 76.2807 328.147 75.9114C327.644 75.837 327.132 75.8674 326.642 76.0005C326.153 76.1336 325.695 76.3666 325.3 76.6848C317.697 82.5378 311.388 89.8999 306.767 98.3085C305.742 100.177 304.776 102.313 305.328 104.371C305.881 106.429 308.742 107.833 310.228 106.305Z" fill="#ED710E"/>
<path d="M375.614 72C387.765 72 397.614 62.1503 397.614 50C397.614 37.8497 387.765 28 375.614 28C363.464 28 353.614 37.8497 353.614 50C353.614 62.1503 363.464 72 375.614 72Z" fill="#A0616A"/>
<path d="M408.955 70.93C407.815 68.62 404.185 68.89 402.334 70.69C400.494 72.49 399.824 75.13 398.784 77.48C397.744 79.84 395.874 82.23 393.304 82.33C390.864 82.42 388.894 80.44 386.614 79.58C384.044 78.61 381.224 79.12 378.624 80.12C378.564 79.87 378.504 79.62 378.424 79.38C378.046 78.0901 377.505 76.8536 376.814 75.7C376.811 76.9769 376.609 78.2455 376.214 79.46C375.967 80.2292 375.638 80.97 375.234 81.67C372.744 82.93 370.284 84.28 367.544 84.73C364.224 85.29 360.254 84.05 359.004 80.91C358.084 78.59 358.904 75.89 360.304 73.8C361.704 71.72 363.624 70.05 365.194 68.1C366.732 66.2802 367.885 64.1682 368.584 61.8911C369.284 59.614 369.515 57.2189 369.264 54.85C368.987 52.773 368.221 50.7916 367.028 49.0687C365.836 47.3458 364.251 45.9308 362.404 44.94C360.47 45.6378 358.465 46.1208 356.424 46.38C356.046 45.0901 355.505 43.8535 354.814 42.7C354.811 43.9769 354.609 45.2455 354.214 46.46C352.311 46.432 350.483 45.7102 349.074 44.43C346.074 41.59 346.354 36.63 348.074 32.87C349.382 30.0219 351.347 27.525 353.808 25.5849C356.27 23.6448 359.156 22.317 362.231 21.7106C365.306 21.1043 368.481 21.2368 371.494 22.0973C374.507 22.9577 377.274 24.5215 379.564 26.66C382.854 22.36 389.454 21.68 394.354 24C399.244 26.33 402.644 30.97 405.054 35.82C410.43 46.7044 411.81 59.1313 408.955 70.93V70.93Z" fill="#2F2E41"/>
<path d="M387.481 18.3423H302.671C301.963 18.3423 301.283 18.0609 300.782 17.56C300.281 17.059 300 16.3796 300 15.6712C300 14.9627 300.281 14.2833 300.782 13.7824C301.283 13.2814 301.963 13 302.671 13H387.481C388.189 13 388.869 13.2814 389.37 13.7824C389.871 14.2833 390.152 14.9627 390.152 15.6712C390.152 16.3796 389.871 17.059 389.37 17.56C388.869 18.0609 388.189 18.3423 387.481 18.3423V18.3423Z" fill="white"/>
<g style="mix-blend-mode:luminosity" filter="url(#filter0_d_1_2)">
<path d="M177.964 173.536H168.532L167.02 178H160.576L169.72 152.728H176.848L185.992 178H179.476L177.964 173.536ZM176.38 168.784L173.248 159.532L170.152 168.784H176.38ZM194.931 160.756C195.507 159.82 196.335 159.064 197.415 158.488C198.495 157.912 199.731 157.624 201.123 157.624C202.779 157.624 204.279 158.044 205.623 158.884C206.967 159.724 208.023 160.924 208.791 162.484C209.583 164.044 209.979 165.856 209.979 167.92C209.979 169.984 209.583 171.808 208.791 173.392C208.023 174.952 206.967 176.164 205.623 177.028C204.279 177.868 202.779 178.288 201.123 178.288C199.707 178.288 198.471 178.012 197.415 177.46C196.359 176.884 195.531 176.128 194.931 175.192V178H188.775V151.36H194.931V160.756ZM203.715 167.92C203.715 166.384 203.283 165.184 202.419 164.32C201.579 163.432 200.535 162.988 199.287 162.988C198.063 162.988 197.019 163.432 196.155 164.32C195.315 165.208 194.895 166.42 194.895 167.956C194.895 169.492 195.315 170.704 196.155 171.592C197.019 172.48 198.063 172.924 199.287 172.924C200.511 172.924 201.555 172.48 202.419 171.592C203.283 170.68 203.715 169.456 203.715 167.92ZM222.353 178.288C220.385 178.288 218.609 177.868 217.025 177.028C215.465 176.188 214.229 174.988 213.317 173.428C212.429 171.868 211.985 170.044 211.985 167.956C211.985 165.892 212.441 164.08 213.353 162.52C214.265 160.936 215.513 159.724 217.097 158.884C218.681 158.044 220.457 157.624 222.425 157.624C224.393 157.624 226.169 158.044 227.753 158.884C229.337 159.724 230.585 160.936 231.497 162.52C232.409 164.08 232.865 165.892 232.865 167.956C232.865 170.02 232.397 171.844 231.461 173.428C230.549 174.988 229.289 176.188 227.681 177.028C226.097 177.868 224.321 178.288 222.353 178.288ZM222.353 172.96C223.529 172.96 224.525 172.528 225.341 171.664C226.181 170.8 226.601 169.564 226.601 167.956C226.601 166.348 226.193 165.112 225.377 164.248C224.585 163.384 223.601 162.952 222.425 162.952C221.225 162.952 220.229 163.384 219.437 164.248C218.645 165.088 218.249 166.324 218.249 167.956C218.249 169.564 218.633 170.8 219.401 171.664C220.193 172.528 221.177 172.96 222.353 172.96ZM255.966 157.912V178H249.81V175.264C249.186 176.152 248.334 176.872 247.254 177.424C246.198 177.952 245.022 178.216 243.726 178.216C242.19 178.216 240.834 177.88 239.658 177.208C238.482 176.512 237.57 175.516 236.922 174.22C236.274 172.924 235.95 171.4 235.95 169.648V157.912H242.07V168.82C242.07 170.164 242.418 171.208 243.114 171.952C243.81 172.696 244.746 173.068 245.922 173.068C247.122 173.068 248.07 172.696 248.766 171.952C249.462 171.208 249.81 170.164 249.81 168.82V157.912H255.966ZM271.584 172.78V178H268.452C266.22 178 264.48 177.46 263.232 176.38C261.984 175.276 261.36 173.488 261.36 171.016V163.024H258.912V157.912H261.36V153.016H267.516V157.912H271.548V163.024H267.516V171.088C267.516 171.688 267.66 172.12 267.948 172.384C268.236 172.648 268.716 172.78 269.388 172.78H271.584ZM288.69 152.728V167.848C288.69 169.36 289.062 170.524 289.806 171.34C290.55 172.156 291.642 172.564 293.082 172.564C294.522 172.564 295.626 172.156 296.394 171.34C297.162 170.524 297.546 169.36 297.546 167.848V152.728H303.702V167.812C303.702 170.068 303.222 171.976 302.262 173.536C301.302 175.096 300.006 176.272 298.374 177.064C296.766 177.856 294.966 178.252 292.974 178.252C290.982 178.252 289.194 177.868 287.61 177.1C286.05 176.308 284.814 175.132 283.902 173.572C282.99 171.988 282.534 170.068 282.534 167.812V152.728H288.69ZM316.197 178.288C314.445 178.288 312.885 177.988 311.517 177.388C310.149 176.788 309.069 175.972 308.277 174.94C307.485 173.884 307.041 172.708 306.945 171.412H313.029C313.101 172.108 313.425 172.672 314.001 173.104C314.577 173.536 315.285 173.752 316.125 173.752C316.893 173.752 317.481 173.608 317.889 173.32C318.321 173.008 318.537 172.612 318.537 172.132C318.537 171.556 318.237 171.136 317.637 170.872C317.037 170.584 316.065 170.272 314.721 169.936C313.281 169.6 312.081 169.252 311.121 168.892C310.161 168.508 309.333 167.92 308.637 167.128C307.941 166.312 307.593 165.22 307.593 163.852C307.593 162.7 307.905 161.656 308.529 160.72C309.177 159.76 310.113 159.004 311.337 158.452C312.585 157.9 314.061 157.624 315.765 157.624C318.285 157.624 320.265 158.248 321.705 159.496C323.169 160.744 324.009 162.4 324.225 164.464H318.537C318.441 163.768 318.129 163.216 317.601 162.808C317.097 162.4 316.425 162.196 315.585 162.196C314.865 162.196 314.313 162.34 313.929 162.628C313.545 162.892 313.353 163.264 313.353 163.744C313.353 164.32 313.653 164.752 314.253 165.04C314.877 165.328 315.837 165.616 317.133 165.904C318.621 166.288 319.833 166.672 320.769 167.056C321.705 167.416 322.521 168.016 323.217 168.856C323.937 169.672 324.309 170.776 324.333 172.168C324.333 173.344 323.997 174.4 323.325 175.336C322.677 176.248 321.729 176.968 320.481 177.496C319.257 178.024 317.829 178.288 316.197 178.288Z" fill="black"/>
</g>
</g>
<defs>
<filter id="filter0_d_1_2" x="156.576" y="151.36" width="171.757" height="34.928" filterUnits="userSpaceOnUse" color-interpolation-filters="sRGB">
<feFlood flood-opacity="0" result="BackgroundImageFix"/>
<feColorMatrix in="SourceAlpha" type="matrix" values="0 0 0 0 0 0 0 0 0 0 0 0 0 0 0 0 0 0 127 0" result="hardAlpha"/>
<feOffset dy="4"/>
<feGaussianBlur stdDeviation="2"/>
<feComposite in2="hardAlpha" operator="out"/>
<feColorMatrix type="matrix" values="0 0 0 0 0 0 0 0 0 0 0 0 0 0 0 0 0 0 0.25 0"/>
<feBlend mode="normal" in2="BackgroundImageFix" result="effect1_dropShadow_1_2"/>
<feBlend mode="normal" in="SourceGraphic" in2="effect1_dropShadow_1_2" result="shape"/>
</filter>
<clipPath id="clip0_1_2">
<rect width="568.957" height="478.05" fill="white"/>
</clipPath>
</defs>
</svg>
